<svg width="37" height="44" viewBox="0 0 37 44" fill="none" xmlns="http://www.w3.org/2000/svg">
<path d="M15.5 44C24.0604 44 31 37.0604 31 28.5C31 19.9396 24.0604 13 15.5 13C6.93959 13 0 19.9396 0 28.5C0 37.0604 6.93959 44 15.5 44Z" fill="#FF961C"/>
<path d="M10 22.5L14 17L18.5 23.5" stroke="#122036" stroke-width="2" stroke-linecap="round" stroke-linejoin="round"/>
<path d="M7 31H11.4545C12.1296 31 12.7771 30.6312 13.2545 29.9749C13.7318 29.3185 14 28.4283 14 27.5V17" stroke="#122036" stroke-width="2" stroke-linecap="round" stroke-linejoin="round"/>
<path d="M6.89399 24.1118C4.90888 22.8761 3.3102 21.1083 2.2796 19.0093C1.249 16.9104 0.827803 14.5644 1.06387 12.2381C1.29994 9.91168 2.1838 7.69817 3.61503 5.84903C5.04626 3.9999 6.96747 2.58929 9.16035 1.77749C11.3532 0.965688 13.7298 0.785252 16.0201 1.25668C18.3104 1.72811 20.4226 2.8325 22.1166 4.44437C23.8106 6.05623 25.0185 8.11093 25.6031 10.375H27.5718C29.6438 10.375 31.631 11.1981 33.0961 12.6632C34.5612 14.1284 35.3843 16.1155 35.3843 18.1875C35.3843 20.2595 34.5612 22.2466 33.0961 23.7118C31.631 25.1769 29.6438 26 27.5718 26H20.5406" stroke="#122036" stroke-width="2" stroke-linecap="round" stroke-linejoin="round"/>
</svg>
