<svg width="37" height="44" viewBox="0 0 37 44" fill="none" xmlns="http://www.w3.org/2000/svg">
<path d="M16.5 44C25.0604 44 32 37.0604 32 28.5C32 19.9396 25.0604 13 16.5 13C7.93959 13 1 19.9396 1 28.5C1 37.0604 7.93959 44 16.5 44Z" fill="#FF961C"/>
<path d="M18.5 30.75L30.75 18.5L36 23.75L23.75 36L18.5 30.75Z" stroke="#122036" stroke-width="2" stroke-linecap="round" stroke-linejoin="round"/>
<path d="M29 20.25L26.375 7.125L1 1L7.125 26.375L20.25 29L29 20.25Z" stroke="#122036" stroke-width="2" stroke-linecap="round" stroke-linejoin="round"/>
<path d="M1 1L14.2755 14.2755" stroke="#122036" stroke-width="2" stroke-linecap="round" stroke-linejoin="round"/>
<path d="M16.75 20.2499C18.683 20.2499 20.25 18.6829 20.25 16.7499C20.25 14.8169 18.683 13.2499 16.75 13.2499C14.817 13.2499 13.25 14.8169 13.25 16.7499C13.25 18.6829 14.817 20.2499 16.75 20.2499Z" stroke="#122036" stroke-width="2" stroke-linecap="round" stroke-linejoin="round"/>
</svg>
