<svg width="37" height="44" viewBox="0 0 37 44" fill="none" xmlns="http://www.w3.org/2000/svg">
<path d="M16.5 44C25.0604 44 32 37.0604 32 28.5C32 19.9396 25.0604 13 16.5 13C7.93959 13 1 19.9396 1 28.5C1 37.0604 7.93959 44 16.5 44Z" fill="#FF961C"/>
<path d="M6.25 26H4.5C3.57174 26 2.6815 25.6237 2.02513 24.954C1.36875 24.2842 1 23.3758 1 22.4286V4.57143C1 3.62423 1.36875 2.71582 2.02513 2.04605C2.6815 1.37627 3.57174 1 4.5 1H32.5C33.4283 1 34.3185 1.37627 34.9749 2.04605C35.6312 2.71582 36 3.62423 36 4.57143V22.4286C36 23.3758 35.6312 24.2842 34.9749 24.954C34.3185 25.6237 33.4283 26 32.5 26H30.75" stroke="#122036" stroke-width="2" stroke-linecap="round" stroke-linejoin="round"/>
<path d="M10 26C10 26 10 34 18.5 34C27 34 27 26 27 26" stroke="#122036" stroke-width="2" stroke-linecap="round" stroke-linejoin="round"/>
<path d="M31 10H11" stroke="#122036" stroke-width="2" stroke-linecap="round" stroke-linejoin="round"/>
<path d="M16 6H9" stroke="#122036" stroke-width="2" stroke-linecap="round" stroke-linejoin="round"/>
<path d="M21 14H13" stroke="#122036" stroke-width="2" stroke-linecap="round" stroke-linejoin="round"/>
<path d="M19 22H7" stroke="#122036" stroke-width="2" stroke-linecap="round" stroke-linejoin="round"/>
<path d="M27 18H10" stroke="#122036" stroke-width="2" stroke-linecap="round" stroke-linejoin="round"/>
</svg>
