<svg width="55" height="55" viewBox="0 0 55 55" fill="none" xmlns="http://www.w3.org/2000/svg">
<circle cx="27.5" cy="27.5" r="27.5" fill="#FF961C" fill-opacity="0.68"/>
<circle cx="27.7987" cy="27.7989" r="21.8207" fill="#FF961C"/>
<path d="M18.1113 28.2869C18.1113 28.2869 21.5031 21.5034 27.4386 21.5034C33.3742 21.5034 36.7659 28.2869 36.7659 28.2869C36.7659 28.2869 33.3742 35.0704 27.4386 35.0704C21.5031 35.0704 18.1113 28.2869 18.1113 28.2869Z" stroke="#F7F7F7" stroke-width="2" stroke-linecap="round" stroke-linejoin="round"/>
<path d="M27.4388 30.8307C28.8437 30.8307 29.9826 29.6918 29.9826 28.2869C29.9826 26.882 28.8437 25.7431 27.4388 25.7431C26.0339 25.7431 24.895 26.882 24.895 28.2869C24.895 29.6918 26.0339 30.8307 27.4388 30.8307Z" stroke="#F7F7F7" stroke-width="2" stroke-linecap="round" stroke-linejoin="round"/>
</svg>
